<?xml version="1.0" encoding="UTF-8"?>
<svg width="25px" height="25px" viewBox="0 0 25 25" version="1.1" xmlns="http://www.w3.org/2000/svg" xmlns:xlink="http://www.w3.org/1999/xlink">
    <!-- Generator: Sketch 43.1 (39012) - http://www.bohemiancoding.com/sketch -->
    <title>Google</title>
    <desc>Created with Sketch.</desc>
    <defs></defs>
    <g id="Page-1" stroke="none" stroke-width="1" fill="none" fill-rule="evenodd">
        <g id="homepage" transform="translate(-180.000000, -725.000000)">
            <g id="social-icons" transform="translate(100.000000, 725.000000)">
                <g id="Google" transform="translate(80.000000, 0.000000)">
                    <path d="M0,12.295082 C0,5.50469536 5.51265012,0 12.3128494,0 C19.1130487,0 24.6256989,5.50469536 24.6256989,12.295082 C24.6256989,19.0854686 19.1130487,24.5901639 12.3128494,24.5901639 C5.51265012,24.5901639 0,19.0854686 0,12.295082 Z M12.295082,9.0273224 C13.2955373,9.0273224 13.9704007,9.45947177 14.3551913,9.82058288 L15.8588342,8.35245902 C14.935337,7.49408015 13.7336066,6.96721311 12.295082,6.96721311 C10.2112933,6.96721311 8.41165756,8.16302368 7.53551913,9.90346084 L9.25819672,11.2413479 C9.69034608,9.95673953 10.8861566,9.0273224 12.295082,9.0273224 Z M17.4098361,12.4134791 C17.4098361,11.9754098 17.3743169,11.6557377 17.2973588,11.3242259 L12.295082,11.3242259 L12.295082,13.3014572 L15.2313297,13.3014572 C15.1721311,13.7928051 14.852459,14.5327869 14.1420765,15.0300546 L15.8233151,16.3324226 C16.8296903,15.4030055 17.4098361,14.0355191 17.4098361,12.4134791 Z M9.26411658,13.348816 C9.15163934,13.0173042 9.08652095,12.6621129 9.08652095,12.295082 C9.08652095,11.928051 9.15163934,11.5728597 9.25819672,11.2413479 L7.53551913,9.90346084 C7.17440801,10.6256831 6.96721311,11.4367031 6.96721311,12.295082 C6.96721311,13.1534608 7.17440801,13.9644809 7.53551913,14.6867031 L9.26411658,13.348816 Z M12.295082,17.6229508 C13.7336066,17.6229508 14.9412568,17.1493625 15.8233151,16.3324226 L14.1420765,15.0300546 C13.6921676,15.3438069 13.0883424,15.5628415 12.295082,15.5628415 C10.8861566,15.5628415 9.69034608,14.6334244 9.26411658,13.348816 L7.54143898,14.6867031 C8.41757741,16.4271403 10.2112933,17.6229508 12.295082,17.6229508 Z" id="Combined-Shape" fill="#FFFFFF"></path>
                    <g id="super-g" transform="translate(6.967213, 6.967213)"></g>
                </g>
            </g>
        </g>
    </g>
</svg>