<?xml version="1.0" encoding="UTF-8"?>
<svg width="25px" height="25px" viewBox="0 0 25 25" version="1.1" xmlns="http://www.w3.org/2000/svg" xmlns:xlink="http://www.w3.org/1999/xlink">
    <!-- Generator: Sketch 43.1 (39012) - http://www.bohemiancoding.com/sketch -->
    <title>Medium</title>
    <desc>Created with Sketch.</desc>
    <defs></defs>
    <g id="Page-1" stroke="none" stroke-width="1" fill="none" fill-rule="evenodd">
        <g id="homepage" transform="translate(-260.000000, -725.000000)" fill="#FFFFFF">
            <g id="social-icons" transform="translate(100.000000, 725.000000)">
                <g id="Medium" transform="translate(160.000000, 0.000000)">
                    <path d="M0,12.5 C0,5.59644029 5.59644029,0 12.5,0 C19.4035597,0 25,5.59644029 25,12.5 C25,19.4035597 19.4035597,25 12.5,25 C5.59644029,25 0,19.4035597 0,12.5 Z M10.4898316,9.13380229 L6.48773968,7.15644838 C6.4534977,7.13950816 6.42085458,7.1315208 6.39136473,7.1315208 C6.34935058,7.1315208 6.31382065,7.14784661 6.28881645,7.1776456 C6.26434521,7.20678629 6.25,7.24891741 6.25,7.3016252 L6.25,15.7904315 C6.25,15.9349061 6.35698952,16.1059322 6.48773968,16.1705332 L10.1861395,17.9978389 C10.2375246,18.0232492 10.2864671,18.0352741 10.3307019,18.0352741 C10.4553231,18.0352741 10.5427268,17.9399964 10.5427268,17.7800737 L10.5427268,9.21841562 C10.5427268,9.18260417 10.5222527,9.14982089 10.4898316,9.13380229 Z M15.1773848,16.2194229 L18.7711933,17.9950301 C18.9673186,18.0919317 19.1277806,17.993933 19.1277806,17.777221 L19.1277806,9.87605608 L15.1773848,16.2194229 Z M10.9221421,9.76919225 L10.9221421,14.1195815 L14.835498,16.0530927 L10.9221421,9.76919225 Z M19.0337151,9.11326337 L14.9543456,7.09772813 C14.9358256,7.08855584 14.9156624,7.08429884 14.8954992,7.0837722 C14.8941668,7.08372831 14.8928788,7.08333333 14.8915465,7.08333333 C14.8419378,7.08333333 14.7925512,7.10795371 14.7658149,7.1508309 L12.2514502,11.1883527 L15.0582263,15.6954171 L19.0728425,9.2489168 C19.1025988,9.20108042 19.0845229,9.13836649 19.0337151,9.11326337 Z" id="Combined-Shape"></path>
                </g>
            </g>
        </g>
    </g>
</svg>