<?xml version="1.0" encoding="UTF-8"?>
<svg width="25px" height="25px" viewBox="0 0 25 25" version="1.1" xmlns="http://www.w3.org/2000/svg" xmlns:xlink="http://www.w3.org/1999/xlink">
    <!-- Generator: Sketch 43.1 (39012) - http://www.bohemiancoding.com/sketch -->
    <title>Twitter</title>
    <desc>Created with Sketch.</desc>
    <defs></defs>
    <g id="Page-1" stroke="none" stroke-width="1" fill="none" fill-rule="evenodd">
        <g id="homepage" transform="translate(-140.000000, -725.000000)" fill="#FFFFFF">
            <g id="social-icons" transform="translate(100.000000, 725.000000)">
                <g id="Twitter" transform="translate(40.000000, 0.000000)">
                    <path d="M0,12.5 C0,5.59644029 5.59644029,0 12.5,0 C19.4035597,0 25,5.59644029 25,12.5 C25,19.4035597 19.4035597,25 12.5,25 C5.59644029,25 0,19.4035597 0,12.5 Z M12.1256264,10.1601566 L12.1518568,10.5926848 L11.7146823,10.5397221 C10.1233668,10.3366987 8.73315162,9.64818442 7.55278025,8.49183352 L6.9757098,7.91807162 L6.82707045,8.34177271 C6.51230475,9.28627307 6.71340506,10.2837361 7.36916693,10.9545961 C7.71890659,11.3253346 7.64021517,11.3782972 7.03691425,11.1576196 C6.82707045,11.0870027 6.64345712,11.0340401 6.62597014,11.0605214 C6.5647657,11.1223111 6.7746095,11.9255778 6.94073584,12.2433536 C7.16806662,12.6847089 7.63147168,13.1172371 8.13859419,13.3732232 L8.56702528,13.5762466 L8.05990276,13.5850738 C7.57026723,13.5850738 7.55278025,13.5939009 7.6052412,13.7792701 C7.78011103,14.353032 8.47084687,14.9621023 9.24027413,15.2269155 L9.78237061,15.4122847 L9.31022207,15.6947521 C8.61074274,16.100799 7.78885452,16.3303038 6.96696631,16.347958 C6.57350919,16.3567851 6.25,16.3920935 6.25,16.4185748 C6.25,16.5068459 7.31670598,17.0011638 7.93749388,17.1953602 C9.7998576,17.7691221 12.011961,17.5219631 13.6732244,16.5421543 C14.8535958,15.8448129 16.0339671,14.4589573 16.5848071,13.1172371 C16.8820858,12.4022415 17.1793645,11.0958298 17.1793645,10.4691053 C17.1793645,10.0630584 17.205595,10.0100958 17.6952305,9.52460493 C17.9837657,9.24213754 18.254814,8.93318882 18.3072749,8.84491776 C18.3947099,8.67720275 18.3859664,8.67720275 17.9400483,8.82726355 C17.1968515,9.09207673 17.0919296,9.05676831 17.4591563,8.65954853 C17.7302045,8.37708114 18.0537137,7.86510898 18.0537137,7.71504818 C18.0537137,7.68856686 17.9225613,7.73270239 17.773922,7.81214634 C17.6165391,7.90041741 17.2667994,8.032824 17.0044947,8.11226795 L16.5323461,8.26232876 L16.1039151,7.97103426 C15.8678408,7.81214634 15.5355881,7.63560422 15.3607183,7.58264159 C14.9148002,7.4590621 14.2328078,7.47671631 13.8306072,7.61795001 C12.7376708,8.01516979 12.0469349,9.0391141 12.1256264,10.1601566 Z" id="Combined-Shape"></path>
                </g>
            </g>
        </g>
    </g>
</svg>