<?xml version="1.0" encoding="UTF-8"?>
<svg width="25px" height="25px" viewBox="0 0 25 25" version="1.1" xmlns="http://www.w3.org/2000/svg" xmlns:xlink="http://www.w3.org/1999/xlink">
    <!-- Generator: Sketch 43.1 (39012) - http://www.bohemiancoding.com/sketch -->
    <title>Youtube</title>
    <desc>Created with Sketch.</desc>
    <defs></defs>
    <g id="Page-1" stroke="none" stroke-width="1" fill="none" fill-rule="evenodd">
        <g id="homepage" transform="translate(-220.000000, -725.000000)" fill="#FFFFFF">
            <g id="social-icons" transform="translate(100.000000, 725.000000)">
                <g id="Youtube" transform="translate(120.000000, 0.000000)">
                    <path d="M0,12.295082 C0,5.50469536 5.51265012,0 12.3128494,0 C19.1130487,0 24.6256989,5.50469536 24.6256989,12.295082 C24.6256989,19.0854686 19.1130487,24.5901639 12.3128494,24.5901639 C5.51265012,24.5901639 0,19.0854686 0,12.295082 Z M18.7213115,9.82022351 C18.7213115,9.82022351 18.5930328,8.89674032 18.2,8.49007267 C17.7012295,7.95608579 17.1422131,7.95357291 16.8860656,7.92258073 C15.0508197,7.78688525 12.2979508,7.78688525 12.2979508,7.78688525 L12.2922131,7.78688525 C12.2922131,7.78688525 9.53934426,7.78688525 7.70409836,7.92258073 C7.44754098,7.95357291 6.88893443,7.95608579 6.3897541,8.49007267 C5.99672131,8.89674032 5.86885246,9.82022351 5.86885246,9.82022351 C5.86885246,9.82022351 5.73770492,10.9049498 5.73770492,11.9892573 L5.73770492,13.0061358 C5.73770492,14.0908621 5.86885246,15.1751695 5.86885246,15.1751695 C5.86885246,15.1751695 5.99672131,16.0986527 6.3897541,16.5053204 C6.88893443,17.0393073 7.5442623,17.0225547 7.83606557,17.0782569 C8.8852459,17.1812849 12.295082,17.2131148 12.295082,17.2131148 C12.295082,17.2131148 15.0508197,17.2089266 16.8860656,17.0732311 C17.1422131,17.0418201 17.7012295,17.0393073 18.2,16.5053204 C18.5930328,16.0986527 18.7213115,15.1751695 18.7213115,15.1751695 C18.7213115,15.1751695 18.852459,14.0908621 18.852459,13.0061358 L18.852459,11.9892573 C18.852459,10.9049498 18.7213115,9.82022351 18.7213115,9.82022351 Z" id="Combined-Shape"></path>
                    <polygon id="Path" points="10.9409836 14.2382843 10.9405738 10.4727345 14.4840164 12.362001"></polygon>
                </g>
            </g>
        </g>
    </g>
</svg>