<?xml version="1.0" encoding="UTF-8"?>
<svg width="232px" height="19px" viewBox="0 0 232 19" version="1.1" xmlns="http://www.w3.org/2000/svg" xmlns:xlink="http://www.w3.org/1999/xlink">
    <title>A N I M E S C R E E</title>
    <desc>Created with Love.</desc>
    <defs></defs>
    <g id="Page-1" stroke="none" stroke-width="1" fill="none" fill-rule="evenodd">
        <g id="signup" transform="translate(-603.000000, -123.000000)" fill="#AA99B1">
            <g id="Group" transform="translate(452.000000, 68.000000)">
                <g id="Group-3" transform="translate(68.000000, 49.000000)">
                    <path d="M94.932,17.316 L93.312,12.528 C93.1919994,12.2239985 93.0640007,11.8660021 92.928,11.454 C92.7919993,11.0419979 92.6560007,10.5960024 92.52,10.116 C92.3999994,10.6040024 92.2720007,11.0559979 92.136,11.472 C91.9999993,11.8880021 91.8720006,12.2479985 91.752,12.552 L90.144,17.316 L94.932,17.316 Z M101.376,24 L98.232,24 C97.8799982,24 97.5960011,23.9180008 97.38,23.754 C97.1639989,23.5899992 97.0000006,23.3800013 96.888,23.124 L95.856,20.076 L89.208,20.076 L88.176,23.124 C88.0879996,23.3480011 87.9300011,23.5499991 87.702,23.73 C87.4739989,23.9100009 87.1920017,24 86.856,24 L83.688,24 L90.456,6.516 L94.608,6.516 L101.376,24 Z M123.448,6.516 L123.448,24 L121.336,24 C121.023998,24 120.762001,23.9500005 120.55,23.85 C120.337999,23.7499995 120.128001,23.5760012 119.92,23.328 L111.676,12.9 C111.708,13.2120016 111.73,13.5139985 111.742,13.806 C111.754,14.0980015 111.76,14.3719987 111.76,14.628 L111.76,24 L108.184,24 L108.184,6.516 L110.32,6.516 C110.496001,6.516 110.643999,6.52399992 110.764,6.54 C110.884,6.55600008 110.991999,6.58599978 111.088,6.63 C111.184,6.67400022 111.275999,6.7359996 111.364,6.816 C111.452,6.8960004 111.551999,7.00399932 111.664,7.14 L119.98,17.64 C119.94,17.3039983 119.912,16.9780016 119.896,16.662 C119.88,16.3459984 119.872,16.0480014 119.872,15.768 L119.872,6.516 L123.448,6.516 Z M137.156,24 L133.076,24 L133.076,6.516 L137.156,6.516 L137.156,24 Z M166.439999,6.516 L166.439999,24 L162.863999,24 L162.863999,13.944 C162.863999,13.7119988 162.869999,13.4600014 162.881999,13.188 C162.893999,12.9159986 162.915999,12.6400014 162.947999,12.36 L158.303999,21.348 C158.159999,21.6280014 157.966001,21.8399993 157.721999,21.984 C157.477998,22.1280007 157.200001,22.2 156.887999,22.2 L156.335999,22.2 C156.023998,22.2 155.746001,22.1280007 155.501999,21.984 C155.257998,21.8399993 155.064,21.6280014 154.919999,21.348 L150.275999,12.336 C150.3,12.6240014 150.319999,12.9059986 150.335999,13.182 C150.351999,13.4580014 150.359999,13.7119988 150.359999,13.944 L150.359999,24 L146.783999,24 L146.783999,6.516 L149.879999,6.516 C150.056,6.516 150.209999,6.51999996 150.341999,6.528 C150.474,6.53600004 150.591999,6.5599998 150.695999,6.6 C150.8,6.6400002 150.893999,6.70199958 150.977999,6.786 C151.062,6.87000042 151.143999,6.98799924 151.223999,7.14 L155.723999,16.008 C155.884,16.3120015 156.037999,16.6279984 156.185999,16.956 C156.334,17.2840016 156.475999,17.6199983 156.611999,17.964 C156.748,17.6119982 156.889999,17.2680017 157.037999,16.932 C157.186,16.5959983 157.343999,16.2760015 157.511999,15.972 L161.999999,7.14 C162.08,6.98799924 162.161999,6.87000042 162.245999,6.786 C162.33,6.70199958 162.423999,6.6400002 162.527999,6.6 C162.632,6.5599998 162.749999,6.53600004 162.881999,6.528 C163.014,6.51999996 163.167999,6.516 163.343999,6.516 L166.439999,6.516 Z M180.147999,9.636 L180.147999,13.716 L185.643999,13.716 L185.643999,16.716 L180.147999,16.716 L180.147999,20.88 L187.323999,20.88 L187.323999,24 L176.067999,24 L176.067999,6.516 L187.323999,6.516 L187.323999,9.636 L180.147999,9.636 Z M205.723999,10.068 C205.603998,10.260001 205.478,10.4039995 205.345999,10.5 C205.213998,10.5960005 205.044,10.644 204.835999,10.644 C204.651998,10.644 204.454,10.5860006 204.241999,10.47 C204.029998,10.3539994 203.79,10.2240007 203.521999,10.08 C203.253998,9.93599928 202.948001,9.80600058 202.603999,9.69 C202.259997,9.57399942 201.868001,9.516 201.427999,9.516 C200.667995,9.516 200.102001,9.67799838 199.729999,10.002 C199.357997,10.3260016 199.171999,10.7639972 199.171999,11.316 C199.171999,11.6680018 199.283998,11.9599988 199.507999,12.192 C199.732,12.4240012 200.025997,12.6239992 200.389999,12.792 C200.754001,12.9600008 201.169997,13.1139993 201.637999,13.254 C202.106001,13.3940007 202.583997,13.5499991 203.071999,13.722 C203.560001,13.8940009 204.037997,14.0959988 204.505999,14.328 C204.974001,14.5600012 205.389997,14.8559982 205.753999,15.216 C206.118001,15.5760018 206.411998,16.0139974 206.635999,16.53 C206.86,17.0460026 206.971999,17.6679964 206.971999,18.396 C206.971999,19.204004 206.832,19.9599965 206.551999,20.664 C206.271998,21.3680035 205.866002,21.9819974 205.333999,22.506 C204.801996,23.0300026 204.146003,23.4419985 203.365999,23.742 C202.585995,24.0420015 201.700004,24.192 200.707999,24.192 C200.163996,24.192 199.610002,24.1360006 199.045999,24.024 C198.481996,23.9119994 197.936002,23.754001 197.407999,23.55 C196.879996,23.345999 196.384001,23.1040014 195.919999,22.824 C195.455997,22.5439986 195.052001,22.2320017 194.707999,21.888 L195.907999,19.992 C196.003999,19.8559993 196.129998,19.7420005 196.285999,19.65 C196.442,19.5579995 196.611998,19.512 196.795999,19.512 C197.036,19.512 197.277998,19.5879992 197.521999,19.74 C197.766,19.8920008 198.041997,20.0599991 198.349999,20.244 C198.658001,20.4280009 199.011997,20.5959992 199.411999,20.748 C199.812001,20.9000008 200.283996,20.976 200.827999,20.976 C201.564003,20.976 202.135997,20.8140016 202.543999,20.49 C202.952001,20.1659984 203.155999,19.6520035 203.155999,18.948 C203.155999,18.539998 203.044,18.2080013 202.819999,17.952 C202.595998,17.6959987 202.302001,17.4840008 201.937999,17.316 C201.573997,17.1479992 201.160001,17.0000006 200.695999,16.872 C200.231997,16.7439994 199.756001,16.6020008 199.267999,16.446 C198.779997,16.2899992 198.304001,16.0980011 197.839999,15.87 C197.375997,15.6419989 196.962001,15.3420019 196.597999,14.97 C196.233997,14.5979981 195.94,14.1340028 195.715999,13.578 C195.491998,13.0219972 195.379999,12.3360041 195.379999,11.52 C195.379999,10.8639967 195.511998,10.2240031 195.775999,9.6 C196.04,8.97599688 196.427996,8.42000244 196.939999,7.932 C197.452002,7.44399756 198.079995,7.05400146 198.823999,6.762 C199.568003,6.46999854 200.419994,6.324 201.379999,6.324 C201.916002,6.324 202.437996,6.36599958 202.945999,6.45 C203.454002,6.53400042 203.935997,6.65799918 204.391999,6.822 C204.848001,6.98600082 205.273997,7.18199886 205.669999,7.41 C206.066001,7.63800114 206.419997,7.89599856 206.731999,8.184 L205.723999,10.068 Z M227.387999,19.476 C227.483999,19.476 227.579998,19.4939998 227.675999,19.53 C227.771999,19.5660002 227.863998,19.6279996 227.951999,19.716 L229.559999,21.408 C228.855995,22.3280046 227.974004,23.0219977 226.913999,23.49 C225.853994,23.9580023 224.600006,24.192 223.151999,24.192 C221.823992,24.192 220.634004,23.9660023 219.581999,23.514 C218.529994,23.0619977 217.638002,22.438004 216.905999,21.642 C216.173995,20.845996 215.612001,19.9020055 215.219999,18.81 C214.827997,17.7179945 214.631999,16.5320064 214.631999,15.252 C214.631999,13.9479935 214.843997,12.7500055 215.267999,11.658 C215.692001,10.5659945 216.287995,9.62400396 217.055999,8.832 C217.824003,8.03999604 218.743993,7.4240022 219.815999,6.984 C220.888004,6.5439978 222.067992,6.324 223.355999,6.324 C224.012002,6.324 224.629996,6.38199942 225.209999,6.498 C225.790002,6.61400058 226.331996,6.77399898 226.835999,6.978 C227.340001,7.18200102 227.803997,7.42799856 228.227999,7.716 C228.652001,8.00400144 229.027997,8.31599832 229.355999,8.652 L227.987999,10.488 C227.899998,10.6000006 227.795999,10.7019995 227.675999,10.794 C227.555998,10.8860005 227.388,10.932 227.171999,10.932 C227.027998,10.932 226.891999,10.9000003 226.763999,10.836 C226.635998,10.7719997 226.5,10.6940005 226.355999,10.602 C226.211998,10.5099995 226.054,10.4100005 225.881999,10.302 C225.709998,10.1939995 225.506,10.0940005 225.269999,10.002 C225.033998,9.90999954 224.758,9.83200032 224.441999,9.768 C224.125997,9.70399968 223.756001,9.672 223.331999,9.672 C222.659995,9.672 222.046002,9.79599876 221.489999,10.044 C220.933996,10.2920012 220.454001,10.6539976 220.049999,11.13 C219.645997,11.6060024 219.334,12.1899965 219.113999,12.882 C218.893998,13.5740035 218.783999,14.3639956 218.783999,15.252 C218.783999,16.1480045 218.905998,16.9439965 219.149999,17.64 C219.394,18.3360035 219.725997,18.9219976 220.145999,19.398 C220.566001,19.8740024 221.055996,20.2359988 221.615999,20.484 C222.176002,20.7320012 222.775996,20.856 223.415999,20.856 C223.784001,20.856 224.119997,20.8380002 224.423999,20.802 C224.728,20.7659998 225.011997,20.7060004 225.275999,20.622 C225.54,20.5379996 225.787998,20.4260007 226.019999,20.286 C226.252,20.1459993 226.487998,19.9680011 226.727999,19.752 C226.823999,19.6719996 226.927998,19.6060003 227.039999,19.554 C227.151999,19.5019997 227.267998,19.476 227.387999,19.476 Z M243.267999,14.736 C243.820001,14.736 244.289997,14.6660007 244.677999,14.526 C245.066001,14.3859993 245.383997,14.1920012 245.631999,13.944 C245.88,13.6959988 246.059998,13.4060017 246.171999,13.074 C246.283999,12.7419983 246.339999,12.3840019 246.339999,12 C246.339999,11.2319962 246.090001,10.6320022 245.589999,10.2 C245.089996,9.76799784 244.316004,9.552 243.267999,9.552 L241.635999,9.552 L241.635999,14.736 L243.267999,14.736 Z M251.883999,24 L248.211999,24 C247.531995,24 247.044,23.7440026 246.747999,23.232 L243.843999,18.156 C243.707998,17.9399989 243.555999,17.7820005 243.387999,17.682 C243.219998,17.5819995 242.98,17.532 242.667999,17.532 L241.635999,17.532 L241.635999,24 L237.579999,24 L237.579999,6.516 L243.267999,6.516 C244.532005,6.516 245.609994,6.6459987 246.501999,6.906 C247.394003,7.1660013 248.121996,7.52799768 248.685999,7.992 C249.250001,8.45600232 249.659997,9.00399684 249.915999,9.636 C250.172,10.2680032 250.299999,10.9559963 250.299999,11.7 C250.299999,12.2680028 250.223999,12.8039975 250.071999,13.308 C249.919998,13.8120025 249.696,14.2779979 249.399999,14.706 C249.103997,15.1340021 248.738001,15.5159983 248.301999,15.852 C247.865996,16.1880017 247.364001,16.4639989 246.795999,16.68 C247.06,16.8160007 247.307997,16.985999 247.539999,17.19 C247.772,17.394001 247.979998,17.6359986 248.163999,17.916 L251.883999,24 Z M263.683998,9.636 L263.683998,13.716 L269.179998,13.716 L269.179998,16.716 L263.683998,16.716 L263.683998,20.88 L270.859998,20.88 L270.859998,24 L259.603998,24 L259.603998,6.516 L270.859998,6.516 L270.859998,9.636 L263.683998,9.636 Z M283.679998,9.636 L283.679998,13.716 L289.175998,13.716 L289.175998,16.716 L283.679998,16.716 L283.679998,20.88 L290.855998,20.88 L290.855998,24 L279.599998,24 L279.599998,6.516 L290.855998,6.516 L290.855998,9.636 L283.679998,9.636 Z M314.859998,6.516 L314.859998,24 L312.747998,24 C312.435996,24 312.173999,23.9500005 311.961998,23.85 C311.749997,23.7499995 311.539999,23.5760012 311.331998,23.328 L303.087998,12.9 C303.119998,13.2120016 303.141998,13.5139985 303.153998,13.806 C303.165998,14.0980015 303.171998,14.3719987 303.171998,14.628 L303.171998,24 L299.595998,24 L299.595998,6.516 L301.731998,6.516 C301.907999,6.516 302.055997,6.52399992 302.175998,6.54 C302.295999,6.55600008 302.403998,6.58599978 302.499998,6.63 C302.595998,6.67400022 302.687998,6.7359996 302.775998,6.816 C302.863998,6.8960004 302.963997,7.00399932 303.075998,7.14 L311.391998,17.64 C311.351998,17.3039983 311.323998,16.9780016 311.307998,16.662 C311.291998,16.3459984 311.283998,16.0480014 311.283998,15.768 L311.283998,6.516 L314.859998,6.516 Z" id="A-N-I-M-E-S-C-R-E-E"></path>
                </g>
            </g>
        </g>
    </g>
</svg>
